<svg class="svg-icon" style="width: 1em; height: 1em;vertical-align: middle;fill: currentColor;overflow: hidden;" viewBox="0 0 1024 1024" version="1.1" xmlns="http://www.w3.org/2000/svg"><path d="M845.8 163h-668c-55.1 0-100 44.9-100 100v458c0 55.1 44.9 100 100 100h668c55.1 0 100-44.9 100-100V263c0-55.2-44.9-100-100-100z m-668 40h668c3.8 0 7.5 0.4 11.1 1L510 551 163.7 204.7c4.5-1.1 9.2-1.7 14.1-1.7z m728 517.9c0 33.1-26.9 60-60 60h-668c-33.1 0-60-26.9-60-60V263c0-15.3 5.8-29.3 15.3-40 1 1.4 2.2 2.8 3.5 4.1l366.3 366.3c2 2 4.5 2.9 7.1 2.9s5.1-1 7.1-2.9l370.7-370.7c0.4-0.4 0.8-0.9 1.2-1.3 10.4 10.8 16.8 25.5 16.8 41.6v457.9z" fill="#5ABE64" /></svg>